<?xml version="1.0" encoding="utf-8"?>
<!-- Generator: Moho 12.4 build 22203 -->
<!DOCTYPE svg PUBLIC "-//W3C//DTD SVG 1.1//EN" "http://www.w3.org/Graphics/SVG/1.1/DTD/svg11.dtd">
<svg version="1.1" id="Frame_0" xmlns="http://www.w3.org/2000/svg" xmlns:xlink="http://www.w3.org/1999/xlink" width="1280px" height="720px">
<g id="Layer_7">
<g id="Layer_5">
<clipPath id="f8625bfd-8701-4cf5-a80f-5623acee5c00">
<path fill="#e57131" fill-rule="evenodd" stroke="none" d="M 557.894 449.076 C 557.894 449.076 557.894 449.076 557.894 449.076 C 559.013 450.142 560.345 451.759 561.623 452.627 C 562.550 453.257 564.031 453.659 564.997 454.226 C 569.656 456.959 575.769 461.040 579.380 465.057 C 581.890 467.850 584.580 472.215 585.950 475.711 C 589.043 483.604 590.334 495.115 590.567 503.589 C 590.728 509.475 590.889 517.690 588.613 523.121 C 586.813 527.418 582.982 533.049 578.847 535.195 C 575.243 537.066 569.386 536.734 565.352 536.261 C 559.145 535.533 551.149 532.469 545.643 529.513 C 538.122 525.476 529.277 517.998 523.269 511.934 C 516.423 505.024 508.581 494.518 503.559 486.187 C 498.564 477.899 492.343 466.294 490.064 456.889 C 489.473 454.447 489.567 451.047 489.354 448.543 C 489.354 448.543 489.354 448.543 489.354 448.543 C 494.202 448.810 500.660 449.299 505.513 449.431 C 521.222 449.860 557.889 449.076 557.894 449.076 C 557.894 449.076 557.894 449.076 557.894 449.076 Z"/>
</clipPath>
<path fill="#e57131" fill-rule="evenodd" stroke="#e57131" stroke-width="1" stroke-linecap="round" stroke-linejoin="round" d="M 557.894 449.076 C 557.894 449.076 557.894 449.076 557.894 449.076 C 559.013 450.142 560.345 451.759 561.623 452.627 C 562.550 453.257 564.031 453.659 564.997 454.226 C 569.656 456.959 575.769 461.040 579.380 465.057 C 581.890 467.850 584.580 472.215 585.950 475.711 C 589.043 483.604 590.334 495.115 590.567 503.589 C 590.728 509.475 590.889 517.690 588.613 523.121 C 586.813 527.418 582.982 533.049 578.847 535.195 C 575.243 537.066 569.386 536.734 565.352 536.261 C 559.145 535.533 551.149 532.469 545.643 529.513 C 538.122 525.476 529.277 517.998 523.269 511.934 C 516.423 505.024 508.581 494.518 503.559 486.187 C 498.564 477.899 492.343 466.294 490.064 456.889 C 489.473 454.447 489.567 451.047 489.354 448.543 C 489.354 448.543 489.354 448.543 489.354 448.543 C 494.202 448.810 500.660 449.299 505.513 449.431 C 521.222 449.860 557.889 449.076 557.894 449.076 C 557.894 449.076 557.894 449.076 557.894 449.076 Z"/>
<path fill="#040000" fill-rule="evenodd" stroke="#040000" stroke-width="1" stroke-linecap="round" stroke-linejoin="round" d="M 518.120 507.140 C 518.120 507.140 518.120 507.140 518.120 507.140 C 520.410 508.685 523.207 511.221 525.755 512.289 C 529.850 514.006 535.876 515.038 540.315 514.953 C 545.341 514.856 552.272 513.691 556.651 511.224 C 561.773 508.339 567.458 502.246 570.146 497.019 C 572.678 492.095 573.711 484.444 573.698 478.907 C 573.684 473.255 572.042 465.698 569.969 460.440 C 569.111 458.264 567.234 455.717 566.062 453.693 C 566.062 453.693 566.062 453.693 566.062 453.693 C 568.193 454.545 571.259 455.255 573.165 456.534 C 578.084 459.833 583.650 465.976 586.305 471.272 C 589.971 478.585 590.771 489.919 591.277 498.084 C 591.814 506.767 593.225 519.165 589.501 527.027 C 587.888 530.432 584.176 534.411 580.800 536.083 C 575.294 538.811 566.420 538.815 560.380 537.681 C 552.115 536.130 542.099 530.083 535.344 525.074 C 529.352 520.631 518.122 507.142 518.120 507.140 C 518.120 507.140 518.120 507.140 518.120 507.140 Z" clip-path="url(#f8625bfd-8701-4cf5-a80f-5623acee5c00)"/>
</g>
<g id="Layer_4">
<clipPath id="ce9bde9b-d643-4b60-9d3e-ba11d82c378e">
<path fill="#ffffff" fill-rule="evenodd" stroke="none" d="M 751.911 396.913 C 751.911 396.913 751.911 396.913 751.911 396.913 C 758.581 399.296 768.258 400.919 774.147 404.855 C 777.958 407.402 781.969 412.240 784.630 415.973 C 788.785 421.804 793.743 430.298 795.430 437.256 C 797.765 446.889 798.431 460.953 795.112 470.293 C 792.023 478.988 783.653 489.201 776.053 494.435 C 767.438 500.368 753.100 503.493 742.698 504.600 C 731.665 505.775 716.419 504.802 705.850 501.423 C 690.406 496.487 673.223 482.230 659.789 473.152 C 650.867 467.122 640.718 456.254 630.883 451.868 C 621.545 447.705 607.535 446.976 597.528 444.880 C 597.528 444.880 597.528 444.880 597.528 444.880 C 619.733 439.829 649.760 434.679 671.543 428.044 C 696.277 420.510 751.903 396.917 751.911 396.913 C 751.911 396.913 751.911 396.913 751.911 396.913 Z"/>
</clipPath>
<path fill="#ffffff" fill-rule="evenodd" stroke="#ffffff" stroke-width="1" stroke-linecap="round" stroke-linejoin="round" d="M 751.911 396.913 C 751.911 396.913 751.911 396.913 751.911 396.913 C 758.581 399.296 768.258 400.919 774.147 404.855 C 777.958 407.402 781.969 412.240 784.630 415.973 C 788.785 421.804 793.743 430.298 795.430 437.256 C 797.765 446.889 798.431 460.953 795.112 470.293 C 792.023 478.988 783.653 489.201 776.053 494.435 C 767.438 500.368 753.100 503.493 742.698 504.600 C 731.665 505.775 716.419 504.802 705.850 501.423 C 690.406 496.487 673.223 482.230 659.789 473.152 C 650.867 467.122 640.718 456.254 630.883 451.868 C 621.545 447.705 607.535 446.976 597.528 444.880 C 597.528 444.880 597.528 444.880 597.528 444.880 C 619.733 439.829 649.760 434.679 671.543 428.044 C 696.277 420.510 751.903 396.917 751.911 396.913 C 751.911 396.913 751.911 396.913 751.911 396.913 Z"/>
<path fill="#040000" fill-rule="evenodd" stroke="none" d="M 656.132 470.808 C 656.132 470.808 656.132 470.808 656.132 470.808 C 651.797 464.554 644.904 456.856 641.683 449.963 C 639.820 445.975 638.791 440.108 637.552 435.885 C 637.552 435.885 637.552 435.885 637.552 435.885 C 649.179 433.247 664.853 430.397 676.308 427.091 C 700.753 420.036 732.120 406.856 756.040 398.184 C 762.139 400.852 771.431 402.616 776.370 407.079 C 779.984 410.344 784.629 421.054 784.630 421.056 C 785.392 429.347 788.352 440.450 787.171 448.692 C 785.831 458.046 781.600 470.770 775.417 477.917 C 769.771 484.443 758.798 489.714 750.640 492.529 C 742.371 495.382 730.475 496.657 721.733 496.341 C 710.676 495.941 695.958 492.679 685.674 488.596 C 676.059 484.779 656.135 470.809 656.132 470.808 C 656.132 470.808 656.132 470.808 656.132 470.808 Z" clip-path="url(#ce9bde9b-d643-4b60-9d3e-ba11d82c378e)"/>
<path fill="none" stroke="#040000" stroke-width="1" stroke-linecap="round" stroke-linejoin="round" d="M 756.040 398.184 C 756.040 398.184 756.040 398.184 756.040 398.184 C 756.040 398.184 756.040 398.184 756.040 398.184 C 732.120 406.856 700.753 420.036 676.308 427.091 C 664.853 430.397 649.179 433.247 637.552 435.885 C 638.791 440.108 639.820 445.975 641.683 449.963 C 644.904 456.856 651.797 464.554 656.132 470.808 C 656.132 470.808 656.132 470.808 656.132 470.808 C 656.135 470.809 676.059 484.779 685.674 488.596 C 695.958 492.679 710.676 495.941 721.733 496.341 C 730.475 496.657 742.371 495.382 750.640 492.529 C 758.798 489.714 769.771 484.443 775.417 477.917 C 781.600 470.770 785.831 458.046 787.171 448.692 C 788.352 440.450 785.392 429.347 784.630 421.056 C 784.630 421.056 784.630 421.056 784.630 421.056 C 784.629 421.054 779.984 410.344 776.370 407.079 C 771.431 402.616 762.139 400.852 756.040 398.184 M 637.552 435.885 C 637.552 435.885 637.552 435.885 637.552 435.885 M 656.132 470.808 C 656.132 470.808 656.132 470.808 656.132 470.808 " clip-path="url(#ce9bde9b-d643-4b60-9d3e-ba11d82c378e)"/>
<path fill="#e57131" fill-rule="evenodd" stroke="#e57131" stroke-width="1" stroke-linecap="round" stroke-linejoin="round" d="M 643.772 438.921 C 645.070 443.053 646.058 448.876 648.100 452.696 C 650.588 457.352 655.244 462.863 659.230 466.325 C 664.374 470.792 672.280 475.815 678.763 477.909 C 684.042 479.613 691.615 479.750 697.162 479.726 C 707.870 479.679 722.320 478.427 732.595 475.410 C 740.404 473.117 750.832 468.985 757.126 463.826 C 761.259 460.439 765.488 454.444 768.029 449.743 C 770.837 444.549 773.227 436.907 774.389 431.118 C 775.304 426.563 775.974 420.297 775.525 415.673 C 775.142 411.741 774.544 406.070 772.117 402.953 C 769.719 399.872 764.168 398.501 760.761 396.593 C 760.761 396.593 760.761 396.593 760.761 396.593 C 760.761 396.593 760.761 396.593 760.761 396.593 C 755.173 399.046 747.794 402.486 742.135 404.770 C 723.326 412.361 697.738 421.176 678.536 427.711 C 668.163 431.242 654.201 435.558 643.772 438.921 C 643.772 438.921 643.772 438.921 643.772 438.921 Z" clip-path="url(#ce9bde9b-d643-4b60-9d3e-ba11d82c378e)"/>
</g>
<g id="Layer_3">
<clipPath id="c2d97839-bc70-4ec4-be56-0c4767d40dd2">
<path fill="#ffffff" fill-rule="evenodd" stroke="none" d="M 755.734 287.428 C 755.734 287.428 755.734 287.428 755.734 287.428 C 763.200 286.532 773.690 287.356 780.623 284.441 C 788.062 281.314 796.417 273.760 801.529 267.517 C 807.992 259.624 814.192 247.042 816.988 237.232 C 820.294 225.636 822.553 208.956 820.071 197.155 C 818.582 190.072 814.343 180.749 809.281 175.575 C 802.231 168.369 788.899 163.378 779.224 160.547 C 766.406 156.795 748.210 155.113 734.908 156.308 C 724.277 157.263 710.475 161.665 700.583 165.674 C 692.626 168.897 682.680 174.726 675.450 179.354 C 667.524 184.426 659.138 194.844 650.317 198.123 C 644.656 200.228 636.135 201.497 630.275 200.032 C 623.803 198.414 616.005 192.822 611.823 187.625 C 608.523 183.524 607.769 175.962 605.142 171.400 C 601.207 164.567 594.915 155.840 588.917 150.721 C 583.424 146.033 574.857 140.960 567.920 138.950 C 560.592 136.827 550.087 136.686 542.521 137.667 C 536.148 138.494 527.944 141.437 522.070 144.044 C 516.827 146.371 510.300 150.462 505.578 153.719 C 503.993 154.814 502.318 156.982 500.521 157.677 C 495.722 159.534 488.216 156.170 483.369 157.897 C 480.591 158.887 477.283 161.420 475.466 163.743 C 471.577 168.713 469.755 177.374 468.246 183.502 C 465.378 195.151 464.949 211.301 463.536 223.214 C 463.536 223.214 463.536 223.214 463.536 223.214 C 484.891 222.766 513.414 220.196 534.719 221.721 C 571.624 224.363 620.810 232.260 656.177 243.126 C 687.426 252.726 755.724 287.424 755.734 287.428 C 755.734 287.428 755.734 287.428 755.734 287.428 Z"/>
</clipPath>
<path fill="#ffffff" fill-rule="evenodd" stroke="#ffffff" stroke-width="1" stroke-linecap="round" stroke-linejoin="round" d="M 755.734 287.428 C 755.734 287.428 755.734 287.428 755.734 287.428 C 763.200 286.532 773.690 287.356 780.623 284.441 C 788.062 281.314 796.417 273.760 801.529 267.517 C 807.992 259.624 814.192 247.042 816.988 237.232 C 820.294 225.636 822.553 208.956 820.071 197.155 C 818.582 190.072 814.343 180.749 809.281 175.575 C 802.231 168.369 788.899 163.378 779.224 160.547 C 766.406 156.795 748.210 155.113 734.908 156.308 C 724.277 157.263 710.475 161.665 700.583 165.674 C 692.626 168.897 682.680 174.726 675.450 179.354 C 667.524 184.426 659.138 194.844 650.317 198.123 C 644.656 200.228 636.135 201.497 630.275 200.032 C 623.803 198.414 616.005 192.822 611.823 187.625 C 608.523 183.524 607.769 175.962 605.142 171.400 C 601.207 164.567 594.915 155.840 588.917 150.721 C 583.424 146.033 574.857 140.960 567.920 138.950 C 560.592 136.827 550.087 136.686 542.521 137.667 C 536.148 138.494 527.944 141.437 522.070 144.044 C 516.827 146.371 510.300 150.462 505.578 153.719 C 503.993 154.814 502.318 156.982 500.521 157.677 C 495.722 159.534 488.216 156.170 483.369 157.897 C 480.591 158.887 477.283 161.420 475.466 163.743 C 471.577 168.713 469.755 177.374 468.246 183.502 C 465.378 195.151 464.949 211.301 463.536 223.214 C 463.536 223.214 463.536 223.214 463.536 223.214 C 484.891 222.766 513.414 220.196 534.719 221.721 C 571.624 224.363 620.810 232.260 656.177 243.126 C 687.426 252.726 755.724 287.424 755.734 287.428 C 755.734 287.428 755.734 287.428 755.734 287.428 Z"/>
<path fill="#020100" fill-rule="evenodd" stroke="#020100" stroke-width="1" stroke-linecap="round" stroke-linejoin="round" d="M 463.618 222.928 C 463.618 222.928 463.618 222.928 463.618 222.928 C 463.618 220.975 463.564 218.372 463.618 216.420 C 463.888 206.732 463.590 193.641 465.689 184.179 C 467.356 176.665 469.820 166.037 474.858 160.219 C 476.921 157.837 480.719 155.521 483.732 154.599 C 486.873 153.638 491.431 154.803 494.677 154.303 C 497.869 153.811 502.002 152.472 505.030 151.345 C 513.808 148.079 524.033 139.969 533.130 137.739 C 543.045 135.309 557.163 134.722 567.146 136.851 C 574.408 138.400 583.850 142.540 589.627 147.204 C 597.001 153.159 604.818 163.884 608.271 172.711 C 610.243 177.751 610.590 185.164 610.823 190.572 C 611.084 196.641 610.593 204.787 609.645 210.788 C 608.987 214.951 607.227 220.321 606.191 224.407 C 606.191 224.407 606.191 224.407 606.191 224.407 C 592.614 222.454 574.577 219.329 560.935 217.899 C 546.076 216.342 526.160 213.843 511.241 214.646 C 496.761 215.425 463.623 222.927 463.618 222.928 C 463.618 222.928 463.618 222.928 463.618 222.928 Z" clip-path="url(#c2d97839-bc70-4ec4-be56-0c4767d40dd2)"/>
<path fill="#020100" fill-rule="evenodd" stroke="#020100" stroke-width="1" stroke-linecap="round" stroke-linejoin="round" d="M 654.665 219.706 C 658.139 213.501 663.545 205.577 668.427 200.406 C 671.615 197.030 676.451 193.049 680.382 190.579 C 685.887 187.120 694.035 183.915 700.125 181.639 C 705.971 179.454 713.950 176.978 720.054 175.679 C 725.511 174.518 732.914 173.269 738.493 173.258 C 745.992 173.243 756.014 174.694 763.264 176.610 C 770.778 178.596 780.591 182.356 787.291 186.295 C 792.966 189.632 800.613 194.639 804.424 200.007 C 807.147 203.843 809.169 210.053 809.906 214.699 C 811.072 222.056 810.105 232.235 808.371 239.479 C 806.245 248.359 801.449 259.935 796.091 267.328 C 792.458 272.342 786.222 278.101 780.960 281.363 C 778.125 283.120 773.909 284.804 770.653 285.529 C 766.347 286.489 760.296 287.009 755.961 286.187 C 741.333 283.414 725.442 269.533 711.884 263.381 C 695.419 255.911 672.668 247.822 655.746 241.452 C 653.058 240.441 649.453 239.150 646.756 238.163 C 646.756 238.163 646.756 238.163 646.756 238.163 C 646.803 238.036 651.722 224.962 654.665 219.706 Z" clip-path="url(#c2d97839-bc70-4ec4-be56-0c4767d40dd2)"/>
<path fill="#e57131" fill-rule="evenodd" stroke="#e57131" stroke-width="1" stroke-linecap="round" stroke-linejoin="round" d="M 599.482 224.605 C 599.482 224.605 599.482 224.605 599.482 224.605 C 600.357 222.459 601.681 219.654 602.401 217.450 C 603.253 214.845 604.206 211.294 604.591 208.580 C 605.374 203.060 606.033 195.490 605.055 190.001 C 604.123 184.766 601.545 177.908 598.552 173.512 C 595.480 168.999 589.752 164.175 585.235 161.109 C 579.162 156.988 570.197 152.427 563.032 150.836 C 555.268 149.113 544.387 149.663 536.521 150.836 C 530.159 151.785 521.808 154.256 515.975 156.967 C 511.086 159.240 505.503 163.942 500.897 166.743 C 499.279 167.726 497.240 169.341 495.429 169.891 C 490.244 171.468 482.459 168.365 477.368 170.223 C 474.424 171.297 470.733 173.887 469.030 176.519 C 467.668 178.625 467.550 182.182 467.042 184.638 C 465.919 190.064 464.669 197.357 464.059 202.864 C 463.440 208.456 463.298 215.970 462.971 221.586 C 462.971 221.586 462.971 221.586 462.971 221.586 C 473.826 219.566 488.151 215.778 499.153 214.851 C 516.029 213.429 538.751 214.413 555.588 216.244 C 568.914 217.694 599.477 224.604 599.482 224.605 C 599.482 224.605 599.482 224.605 599.482 224.605 Z" clip-path="url(#c2d97839-bc70-4ec4-be56-0c4767d40dd2)"/>
<path fill="#e57131" fill-rule="evenodd" stroke="none" d="M 769.523 283.931 C 766.829 285.285 762.630 285.331 759.676 285.931 C 759.671 285.929 728.682 268.205 714.749 261.930 C 702.976 256.627 686.741 250.767 674.438 246.851 C 667.674 244.699 658.449 242.534 651.596 240.683 C 651.596 240.683 651.812 238.633 652.147 237.828 C 652.378 237.271 652.975 236.685 653.254 236.151 C 654.264 234.214 654.861 231.305 655.761 229.315 C 658.128 224.084 661.691 217.221 665.152 212.641 C 668.317 208.452 673.268 203.367 677.443 200.185 C 681.990 196.722 688.702 192.820 694.094 190.924 C 700.348 188.724 709.274 187.587 715.899 187.325 C 724.310 186.992 735.701 187.731 743.844 189.865 C 751.104 191.768 761.044 195.101 766.708 200.027 C 771.427 204.131 775.549 211.814 777.928 217.598 C 781.059 225.212 783.068 236.259 783.432 244.484 C 783.742 251.505 782.844 261.021 780.892 267.771 C 779.945 271.044 778.186 275.362 776.139 278.085 C 774.547 280.202 771.890 282.742 769.523 283.931 Z" clip-path="url(#c2d97839-bc70-4ec4-be56-0c4767d40dd2)"/>
<path fill="none" stroke="#e57131" stroke-width="1" stroke-linecap="round" stroke-linejoin="round" d="M 759.676 285.931 C 759.676 285.931 759.676 285.931 759.676 285.931 C 762.630 285.331 766.829 285.285 769.523 283.931 C 771.890 282.742 774.547 280.202 776.139 278.085 C 778.186 275.362 779.945 271.044 780.892 267.771 C 782.844 261.021 783.742 251.505 783.432 244.484 C 783.068 236.259 781.059 225.212 777.928 217.598 C 775.549 211.814 771.427 204.131 766.708 200.027 C 761.044 195.101 751.104 191.768 743.844 189.865 C 735.701 187.731 724.310 186.992 715.899 187.325 C 709.274 187.587 700.348 188.724 694.094 190.924 C 688.702 192.820 681.990 196.722 677.443 200.185 C 673.268 203.367 668.317 208.452 665.152 212.641 C 661.691 217.221 658.128 224.084 655.761 229.315 C 654.861 231.305 654.264 234.214 653.254 236.151 C 652.975 236.685 652.378 237.271 652.147 237.828 C 651.812 238.633 651.596 240.683 651.596 240.683 C 651.596 240.683 651.596 240.683 651.596 240.683 C 658.449 242.534 667.674 244.699 674.438 246.851 C 686.741 250.767 702.976 256.627 714.749 261.930 C 728.682 268.205 759.671 285.929 759.676 285.931 " clip-path="url(#c2d97839-bc70-4ec4-be56-0c4767d40dd2)"/>
</g>
<g id="Layer_4">
<clipPath id="b1df8be6-2797-44e0-9d75-0bb0398a55d6">
<path fill="#ffffff" fill-rule="evenodd" stroke="none" d="M 277.508 367.373 C 277.508 367.373 277.508 367.373 277.508 367.373 C 281.532 372.179 286.450 379.002 290.922 383.395 C 299.826 392.141 312.910 402.722 323.653 409.074 C 341.549 419.655 367.760 429.745 387.782 435.344 C 425.886 445.999 478.798 453.190 518.358 453.887 C 553.926 454.514 601.506 449.045 636.307 441.668 C 667.881 434.975 708.489 420.001 738.680 408.593 C 748.121 405.026 760.014 398.452 769.655 395.469 C 778.713 392.665 791.157 388.722 800.629 389.169 C 810.333 389.626 823.088 393.942 831.603 398.618 C 836.606 401.366 841.487 407.632 846.303 410.693 C 861.419 420.300 883.201 432.113 900.902 434.843 C 914.036 436.868 932.567 435.333 945.001 430.643 C 960.258 424.888 978.210 410.787 988.669 398.276 C 995.832 389.708 1003.441 376.130 1005.762 365.206 C 1008.501 352.309 1006.632 333.971 1002.789 321.359 C 998.537 307.405 988.927 289.326 978.265 279.370 C 968.864 270.592 952.330 263.683 939.992 260.048 C 931.059 257.416 918.472 256.218 909.161 256.430 C 898.126 256.682 883.390 259.181 872.880 262.556 C 868.076 264.098 861.995 267.110 857.623 269.627 C 851.014 273.433 842.833 279.562 836.910 284.366 C 834.281 286.498 831.483 290.255 828.545 291.934 C 822.303 295.503 812.616 297.838 805.441 298.307 C 796.520 298.892 784.324 297.096 775.965 293.926 C 770.694 291.927 764.910 286.790 760.031 283.967 C 742.909 274.063 719.592 261.637 701.598 253.421 C 676.614 242.013 642.943 226.824 616.290 220.196 C 587.607 213.063 547.959 208.303 518.410 208.971 C 502.937 209.320 482.536 213.355 467.348 216.333 C 454.442 218.863 437.446 223.279 424.790 226.858 C 414.741 229.699 401.413 233.779 391.612 237.383 C 380.549 241.452 365.983 247.438 355.404 252.636 C 344.390 258.046 329.666 265.479 319.807 272.785 C 313.011 277.821 304.701 285.604 299.210 292.038 C 293.998 298.145 287.935 307.089 284.210 314.202 C 281.231 319.893 277.901 327.888 276.375 334.128 C 275.590 337.334 275.440 341.773 275.040 345.050 C 275.040 345.050 275.040 345.050 275.040 345.050 C 276.319 345.736 278.005 346.690 279.304 347.338 C 281.790 348.577 285.317 349.802 287.727 351.185 C 292.030 353.655 301.140 360.855 301.141 360.856 C 299.613 360.950 297.573 361.049 296.046 361.168 C 291.295 361.538 284.459 360.514 280.240 362.728 C 279.107 363.322 277.554 364.507 277.224 365.743 C 277.096 366.223 277.508 367.372 277.508 367.373 C 277.508 367.373 277.508 367.373 277.508 367.373 Z"/>
</clipPath>
<path fill="#ffffff" fill-rule="evenodd" stroke="none" d="M 277.508 367.373 C 277.508 367.373 277.508 367.373 277.508 367.373 C 281.532 372.179 286.450 379.002 290.922 383.395 C 299.826 392.141 312.910 402.722 323.653 409.074 C 341.549 419.655 367.760 429.745 387.782 435.344 C 425.886 445.999 478.798 453.190 518.358 453.887 C 553.926 454.514 601.506 449.045 636.307 441.668 C 667.881 434.975 708.489 420.001 738.680 408.593 C 748.121 405.026 760.014 398.452 769.655 395.469 C 778.713 392.665 791.157 388.722 800.629 389.169 C 810.333 389.626 823.088 393.942 831.603 398.618 C 836.606 401.366 841.487 407.632 846.303 410.693 C 861.419 420.300 883.201 432.113 900.902 434.843 C 914.036 436.868 932.567 435.333 945.001 430.643 C 960.258 424.888 978.210 410.787 988.669 398.276 C 995.832 389.708 1003.441 376.130 1005.762 365.206 C 1008.501 352.309 1006.632 333.971 1002.789 321.359 C 998.537 307.405 988.927 289.326 978.265 279.370 C 968.864 270.592 952.330 263.683 939.992 260.048 C 931.059 257.416 918.472 256.218 909.161 256.430 C 898.126 256.682 883.390 259.181 872.880 262.556 C 868.076 264.098 861.995 267.110 857.623 269.627 C 851.014 273.433 842.833 279.562 836.910 284.366 C 834.281 286.498 831.483 290.255 828.545 291.934 C 822.303 295.503 812.616 297.838 805.441 298.307 C 796.520 298.892 784.324 297.096 775.965 293.926 C 770.694 291.927 764.910 286.790 760.031 283.967 C 742.909 274.063 719.592 261.637 701.598 253.421 C 676.614 242.013 642.943 226.824 616.290 220.196 C 587.607 213.063 547.959 208.303 518.410 208.971 C 502.937 209.320 482.536 213.355 467.348 216.333 C 454.442 218.863 437.446 223.279 424.790 226.858 C 414.741 229.699 401.413 233.779 391.612 237.383 C 380.549 241.452 365.983 247.438 355.404 252.636 C 344.390 258.046 329.666 265.479 319.807 272.785 C 313.011 277.821 304.701 285.604 299.210 292.038 C 293.998 298.145 287.935 307.089 284.210 314.202 C 281.231 319.893 277.901 327.888 276.375 334.128 C 275.590 337.334 275.440 341.773 275.040 345.050 C 275.040 345.050 275.040 345.050 275.040 345.050 C 276.319 345.736 278.005 346.690 279.304 347.338 C 281.790 348.577 285.317 349.802 287.727 351.185 C 292.030 353.655 301.140 360.855 301.141 360.856 C 299.613 360.950 297.573 361.049 296.046 361.168 C 291.295 361.538 284.459 360.514 280.240 362.728 C 279.107 363.322 277.554 364.507 277.224 365.743 C 277.096 366.223 277.508 367.372 277.508 367.373 C 277.508 367.373 277.508 367.373 277.508 367.373 Z"/>
<path fill="none" stroke="#e76325" stroke-width="1" stroke-opacity="0.000000" stroke-linecap="round" stroke-linejoin="round" d="M 301.141 360.856 C 301.141 360.856 301.141 360.856 301.141 360.856 C 301.140 360.855 292.030 353.655 287.727 351.185 C 285.317 349.802 281.790 348.577 279.304 347.338 C 278.005 346.690 276.319 345.736 275.040 345.050 C 275.440 341.773 275.590 337.334 276.375 334.128 C 277.901 327.888 281.231 319.893 284.210 314.202 C 287.935 307.089 293.998 298.145 299.210 292.038 C 304.701 285.604 313.011 277.821 319.807 272.785 C 329.666 265.479 344.390 258.046 355.404 252.636 C 365.983 247.438 380.549 241.452 391.612 237.383 C 401.413 233.779 414.741 229.699 424.790 226.858 C 437.446 223.279 454.442 218.863 467.348 216.333 C 482.536 213.355 502.937 209.320 518.410 208.971 C 547.959 208.303 587.607 213.063 616.290 220.196 C 642.943 226.824 676.614 242.013 701.598 253.421 C 719.592 261.637 742.909 274.063 760.031 283.967 C 764.910 286.790 770.694 291.927 775.965 293.926 C 784.324 297.096 796.520 298.892 805.441 298.307 C 812.616 297.838 822.303 295.503 828.545 291.934 C 831.483 290.255 834.281 286.498 836.910 284.366 C 842.833 279.562 851.014 273.433 857.623 269.627 C 861.995 267.110 868.076 264.098 872.880 262.556 C 883.390 259.181 898.126 256.682 909.161 256.430 C 918.472 256.218 931.059 257.416 939.992 260.048 C 952.330 263.683 968.864 270.592 978.265 279.370 C 988.927 289.326 998.537 307.405 1002.789 321.359 C 1006.632 333.971 1008.501 352.309 1005.762 365.206 C 1003.441 376.130 995.832 389.708 988.669 398.276 C 978.210 410.787 960.258 424.888 945.001 430.643 C 932.567 435.333 914.036 436.868 900.902 434.843 C 883.201 432.113 861.419 420.300 846.303 410.693 C 841.487 407.632 836.606 401.366 831.603 398.618 C 823.088 393.942 810.333 389.626 800.629 389.169 C 791.157 388.722 778.713 392.665 769.655 395.469 C 760.014 398.452 748.121 405.026 738.680 408.593 C 708.489 420.001 667.881 434.975 636.307 441.668 C 601.506 449.045 553.926 454.514 518.358 453.887 C 478.798 453.190 425.886 445.999 387.782 435.344 C 367.760 429.745 341.549 419.655 323.653 409.074 C 312.910 402.722 299.826 392.141 290.922 383.395 C 286.450 379.002 281.532 372.179 277.508 367.373 C 277.508 367.373 277.508 367.373 277.508 367.373 C 277.508 367.372 277.096 366.223 277.224 365.743 C 277.554 364.507 279.107 363.322 280.240 362.728 C 284.459 360.514 291.295 361.538 296.046 361.168 C 297.573 361.049 299.613 360.950 301.141 360.856 M 275.040 345.050 C 275.040 345.050 275.040 345.050 275.040 345.050 M 277.508 367.373 C 277.508 367.373 277.508 367.373 277.508 367.373 "/>
<path fill="#e86328" fill-rule="evenodd" stroke="none" d="M 369.502 430.614 C 369.502 430.614 369.502 430.614 369.502 430.614 C 369.502 427.507 368.993 423.321 369.502 420.256 C 371.063 410.842 377.583 399.509 380.897 390.561 C 384.105 381.896 389.774 370.676 391.255 361.556 C 393.283 349.075 392.160 331.867 389.874 319.431 C 387.516 306.608 381.655 289.948 375.717 278.341 C 372.289 271.639 366.978 262.850 361.560 257.623 C 359.575 255.709 356.243 253.998 353.964 252.444 C 353.964 252.444 353.964 252.444 353.964 252.444 C 345.159 256.070 332.638 259.403 324.614 264.529 C 314.548 270.960 303.097 282.501 295.610 291.807 C 287.748 301.579 277.640 315.656 274.202 327.718 C 272.665 333.105 273.166 346.361 273.166 346.363 C 276.895 347.814 282.079 349.290 285.596 351.197 C 289.185 353.143 293.331 356.757 296.646 359.139 C 296.646 359.139 296.646 359.139 296.646 359.139 C 292.295 359.450 286.461 359.558 282.143 360.175 C 279.629 360.534 276.342 361.383 273.856 361.901 C 273.856 361.901 273.856 361.901 273.856 361.901 C 275.514 365.838 276.862 371.573 279.381 375.023 C 281.720 378.226 286.337 381.129 289.394 383.655 C 300.145 392.537 313.973 405.246 325.995 412.314 C 338.202 419.490 369.498 430.613 369.502 430.614 C 369.502 430.614 369.502 430.614 369.502 430.614 Z" clip-path="url(#b1df8be6-2797-44e0-9d75-0bb0398a55d6)"/>
<path fill="none" stroke="#e76325" stroke-width="1" stroke-opacity="0.000000" stroke-linecap="round" stroke-linejoin="round" d="M 273.166 346.363 C 273.166 346.363 273.166 346.363 273.166 346.363 C 273.166 346.361 272.665 333.105 274.202 327.718 C 277.640 315.656 287.748 301.579 295.610 291.807 C 303.097 282.501 314.548 270.960 324.614 264.529 C 332.638 259.403 345.159 256.070 353.964 252.444 C 356.243 253.998 359.575 255.709 361.560 257.623 C 366.978 262.850 372.289 271.639 375.717 278.341 C 381.655 289.948 387.516 306.608 389.874 319.431 C 392.160 331.867 393.283 349.075 391.255 361.556 C 389.774 370.676 384.105 381.896 380.897 390.561 C 377.583 399.509 371.063 410.842 369.502 420.256 C 368.993 423.321 369.502 427.507 369.502 430.614 C 369.502 430.614 369.502 430.614 369.502 430.614 C 369.498 430.613 338.202 419.490 325.995 412.314 C 313.973 405.246 300.145 392.537 289.394 383.655 C 286.337 381.129 281.720 378.226 279.381 375.023 C 276.862 371.573 275.514 365.838 273.856 361.901 C 276.342 361.383 279.629 360.534 282.143 360.175 C 286.461 359.558 292.295 359.450 296.646 359.139 C 293.331 356.757 289.185 353.143 285.596 351.197 C 282.079 349.290 276.895 347.814 273.166 346.363 M 353.964 252.444 C 353.964 252.444 353.964 252.444 353.964 252.444 M 296.646 359.139 C 296.646 359.139 296.646 359.139 296.646 359.139 M 273.856 361.901 C 273.856 361.901 273.856 361.901 273.856 361.901 M 369.502 430.614 C 369.502 430.614 369.502 430.614 369.502 430.614 " clip-path="url(#b1df8be6-2797-44e0-9d75-0bb0398a55d6)"/>
<path fill="#e76c26" fill-rule="evenodd" stroke="none" d="M 410.050 430.112 C 404.684 433.228 396.339 434.763 390.462 436.757 C 390.467 436.758 420.966 444.016 434.224 446.134 C 464.036 450.898 504.194 455.996 534.384 455.882 C 547.530 455.832 564.935 453.130 578.028 451.950 C 578.028 451.948 577.696 433.549 575.669 426.000 C 571.527 410.579 557.055 393.465 552.052 378.302 C 546.749 362.227 540.100 339.549 542.177 322.750 C 543.683 310.564 551.961 295.659 558.225 285.099 C 564.989 273.695 577.380 260.805 585.668 250.456 C 589.717 245.400 596.121 239.343 599.242 233.667 C 602.044 228.571 603.632 220.825 605.514 215.322 C 605.508 215.321 564.493 208.562 546.733 207.592 C 527.789 206.557 502.336 206.683 483.509 209.021 C 464.857 211.336 440.258 217.007 422.427 222.951 C 417.462 224.607 411.176 227.702 406.353 229.738 C 414.079 239.811 425.546 252.445 432.106 263.313 C 438.928 274.614 446.887 290.590 450.487 303.290 C 453.443 313.719 455.460 328.297 455.081 339.131 C 454.649 351.505 451.077 367.943 446.811 379.567 C 442.751 390.628 435.362 404.853 427.971 414.029 C 423.440 419.655 416.297 426.485 410.050 430.112 M 406.353 229.738 C 406.353 229.738 406.353 229.738 406.353 229.738 Z" clip-path="url(#b1df8be6-2797-44e0-9d75-0bb0398a55d6)"/>
<path fill="none" stroke="#e76325" stroke-width="1" stroke-opacity="0.000000" stroke-linecap="round" stroke-linejoin="round" d="M 390.462 436.757 C 390.462 436.757 390.462 436.757 390.462 436.757 C 396.339 434.763 404.684 433.228 410.050 430.112 C 416.297 426.485 423.440 419.655 427.971 414.029 C 435.362 404.853 442.751 390.628 446.811 379.567 C 451.077 367.943 454.649 351.505 455.081 339.131 C 455.460 328.297 453.443 313.719 450.487 303.290 C 446.887 290.590 438.928 274.614 432.106 263.313 C 425.546 252.445 414.079 239.811 406.353 229.738 C 406.353 229.738 406.353 229.738 406.353 229.738 C 411.176 227.702 417.462 224.607 422.427 222.951 C 440.258 217.007 464.857 211.336 483.509 209.021 C 502.336 206.683 527.789 206.557 546.733 207.592 C 564.493 208.562 605.508 215.321 605.514 215.322 C 605.514 215.322 605.514 215.322 605.514 215.322 C 603.632 220.825 602.044 228.571 599.242 233.667 C 596.121 239.343 589.717 245.400 585.668 250.456 C 577.380 260.805 564.989 273.695 558.225 285.099 C 551.961 295.659 543.683 310.564 542.177 322.750 C 540.100 339.549 546.749 362.227 552.052 378.302 C 557.055 393.465 571.527 410.579 575.669 426.000 C 577.696 433.549 578.028 451.948 578.028 451.950 C 578.028 451.950 578.028 451.950 578.028 451.950 C 564.935 453.130 547.530 455.832 534.384 455.882 C 504.194 455.996 464.036 450.898 434.224 446.134 C 420.966 444.016 390.467 436.758 390.462 436.757 " clip-path="url(#b1df8be6-2797-44e0-9d75-0bb0398a55d6)"/>
<path fill="#e76c26" fill-rule="evenodd" stroke="none" d="M 758.241 405.059 C 764.185 402.288 772.083 398.530 778.015 395.732 C 778.016 395.729 785.758 378.579 787.343 370.733 C 789.849 358.331 789.411 341.189 788.462 328.572 C 787.630 317.506 783.979 303.070 782.058 292.141 C 782.054 292.139 754.585 276.387 742.522 270.177 C 729.777 263.615 712.357 255.725 699.361 249.676 C 685.919 243.420 667.881 235.326 654.389 229.176 C 648.941 244.689 639.855 264.848 636.229 280.885 C 631.131 303.435 628.269 334.457 628.624 357.574 C 628.894 375.198 633.004 398.487 635.861 415.880 C 637.341 424.891 640.039 436.774 641.830 445.728 C 658.732 441.811 681.745 438.258 698.170 432.670 C 716.947 426.281 740.265 413.441 758.241 405.059 M 641.830 445.728 C 641.830 445.728 641.830 445.728 641.830 445.728 M 654.389 229.176 C 654.389 229.176 654.389 229.176 654.389 229.176 Z" clip-path="url(#b1df8be6-2797-44e0-9d75-0bb0398a55d6)"/>
<path fill="none" stroke="#e76325" stroke-width="1" stroke-opacity="0.000000" stroke-linecap="round" stroke-linejoin="round" d="M 778.015 395.732 C 778.015 395.732 778.015 395.732 778.015 395.732 C 772.083 398.530 764.185 402.288 758.241 405.059 C 740.265 413.441 716.947 426.281 698.170 432.670 C 681.745 438.258 658.732 441.811 641.830 445.728 C 641.830 445.728 641.830 445.728 641.830 445.728 C 640.039 436.774 637.341 424.891 635.861 415.880 C 633.004 398.487 628.894 375.198 628.624 357.574 C 628.269 334.457 631.131 303.435 636.229 280.885 C 639.855 264.848 648.941 244.689 654.389 229.176 C 654.389 229.176 654.389 229.176 654.389 229.176 C 667.881 235.326 685.919 243.420 699.361 249.676 C 712.357 255.725 729.777 263.615 742.522 270.177 C 754.585 276.387 782.054 292.139 782.058 292.141 C 782.058 292.141 782.058 292.141 782.058 292.141 C 783.979 303.070 787.630 317.506 788.462 328.572 C 789.411 341.189 789.849 358.331 787.343 370.733 C 785.758 378.579 778.016 395.729 778.015 395.732 " clip-path="url(#b1df8be6-2797-44e0-9d75-0bb0398a55d6)"/>
<path fill="#050100" fill-rule="evenodd" stroke="#050100" stroke-width="1" stroke-linecap="round" stroke-linejoin="round" d="M 845.174 294.824 C 849.167 287.755 855.107 278.154 861.661 273.361 C 873.792 264.490 894.483 260.118 909.375 258.092 C 921.296 256.471 937.826 256.289 949.456 259.365 C 957.448 261.479 967.671 266.545 974.038 271.818 C 985.232 281.090 996.964 297.565 1002.575 310.973 C 1006.972 321.480 1009.246 336.977 1009.150 348.366 C 1009.047 360.550 1006.760 377.310 1001.342 388.224 C 996.063 398.861 984.672 410.857 975.045 417.809 C 967.931 422.946 956.875 427.711 948.336 429.725 C 941.128 431.425 931.075 431.378 923.681 430.958 C 914.819 430.454 903.018 428.547 894.507 426.027 C 884.326 423.012 870.435 418.391 862.086 411.830 C 855.002 406.264 847.339 396.333 843.677 388.101 C 842.065 384.479 841.557 379.091 840.887 375.183 C 839.144 365.029 837.749 351.343 836.814 341.082 C 836.466 337.272 835.864 332.184 835.951 328.359 C 836.041 324.408 836.618 319.136 837.446 315.272 C 837.842 313.425 838.653 311.031 839.279 309.248 C 839.212 309.327 842.874 298.894 845.174 294.824 Z" clip-path="url(#b1df8be6-2797-44e0-9d75-0bb0398a55d6)"/>
<path fill="#e76c26" fill-rule="evenodd" stroke="#e76c26" stroke-width="1" stroke-linecap="round" stroke-linejoin="round" d="M 910.140 280.527 C 918.110 283.964 928.382 290.117 934.260 296.503 C 941.692 304.576 948.651 318.167 951.489 328.767 C 953.776 337.307 954.235 349.497 952.742 358.212 C 951.445 365.780 947.460 375.536 943.344 382.018 C 938.107 390.266 929.057 400.303 920.791 405.512 C 912.997 410.424 900.814 414.197 891.659 415.222 C 885.850 415.873 877.763 415.563 872.238 413.656 C 864.254 410.902 855.140 403.541 849.058 397.681 C 845.051 393.821 840.183 387.977 837.781 382.958 C 833.834 374.711 831.988 362.309 831.202 353.200 C 830.354 343.358 830.660 329.960 832.769 320.309 C 834.363 313.012 837.841 303.429 841.853 297.129 C 845.031 292.138 850.597 286.281 855.322 282.720 C 858.515 280.313 863.354 277.877 867.106 276.498 C 870.871 275.114 876.243 274.468 880.158 273.598 C 880.158 273.598 880.158 273.598 880.158 273.598 C 880.037 273.609 901.663 276.871 910.140 280.527 Z" clip-path="url(#b1df8be6-2797-44e0-9d75-0bb0398a55d6)"/>
<path fill="#050100" fill-rule="evenodd" stroke="none" d="M 371.220 424.646 C 370.848 426.743 371.220 429.616 371.220 431.746 C 371.220 431.746 368.039 431.746 366.676 431.746 C 366.676 431.745 366.004 425.556 366.392 422.941 C 367.219 417.368 370.906 410.592 372.925 405.332 C 375.980 397.370 380.947 387.076 383.433 378.918 C 385.772 371.244 388.514 360.787 389.114 352.787 C 389.971 341.370 388.534 325.952 386.274 314.728 C 384.199 304.427 379.688 291.004 375.227 281.491 C 372.458 275.587 367.940 268.067 363.947 262.913 C 361.131 259.277 356.516 255.172 353.331 251.854 C 353.332 251.854 355.499 250.461 356.427 249.864 C 360.039 252.793 365.375 256.153 368.465 259.627 C 376.355 268.498 383.946 282.777 388.574 293.710 C 392.259 302.414 395.748 314.688 397.095 324.044 C 398.567 334.266 398.932 348.249 397.436 358.468 C 396.073 367.781 391.763 379.736 388.233 388.461 C 385.095 396.218 379.007 405.688 375.623 413.342 C 374.151 416.670 371.857 421.063 371.220 424.646 M 356.427 249.864 C 356.427 249.864 356.427 249.864 356.427 249.864 Z" clip-path="url(#b1df8be6-2797-44e0-9d75-0bb0398a55d6)"/>
<path fill="none" stroke="#050100" stroke-width="1" stroke-linecap="round" stroke-linejoin="round" d="M 371.220 431.746 C 371.220 431.746 371.220 431.746 371.220 431.746 C 371.220 429.616 370.848 426.743 371.220 424.646 C 371.857 421.063 374.151 416.670 375.623 413.342 C 379.007 405.688 385.095 396.218 388.233 388.461 C 391.763 379.736 396.073 367.781 397.436 358.468 C 398.932 348.249 398.567 334.266 397.095 324.044 C 395.748 314.688 392.259 302.414 388.574 293.710 C 383.946 282.777 376.355 268.498 368.465 259.627 C 365.375 256.153 360.039 252.793 356.427 249.864 C 356.427 249.864 356.427 249.864 356.427 249.864 C 355.499 250.461 353.332 251.854 353.331 251.854 C 353.331 251.854 353.331 251.854 353.331 251.854 C 356.516 255.172 361.131 259.277 363.947 262.913 C 367.940 268.067 372.458 275.587 375.227 281.491 C 379.688 291.004 384.199 304.427 386.274 314.728 C 388.534 325.952 389.971 341.370 389.114 352.787 C 388.514 360.787 385.772 371.244 383.433 378.918 C 380.947 387.076 375.980 397.370 372.925 405.332 C 370.906 410.592 367.219 417.368 366.392 422.941 C 366.004 425.556 366.676 431.745 366.676 431.746 C 366.676 431.746 366.676 431.746 366.676 431.746 C 368.039 431.746 371.220 431.746 371.220 431.746 " clip-path="url(#b1df8be6-2797-44e0-9d75-0bb0398a55d6)"/>
<path fill="#050100" fill-rule="evenodd" stroke="none" d="M 396.436 433.542 C 393.463 434.435 389.298 434.770 386.240 435.296 C 386.240 435.296 389.268 436.556 390.565 437.095 C 390.567 437.095 401.013 436.724 405.242 435.396 C 409.356 434.103 414.556 431.310 417.910 428.598 C 423.803 423.834 429.640 415.298 433.822 408.978 C 438.593 401.769 443.871 391.440 447.263 383.488 C 451.357 373.888 456.460 360.745 458.135 350.445 C 459.641 341.181 459.634 328.461 458.377 319.159 C 456.743 307.066 452.023 291.224 446.979 280.113 C 443.834 273.188 438.018 264.770 433.605 258.576 C 428.589 251.534 421.300 242.554 415.398 236.237 C 413.483 234.188 411.054 231.212 408.650 229.769 C 408.405 229.621 408.030 229.521 407.764 229.415 C 407.764 229.415 404.851 230.530 403.603 231.008 C 410.893 239.906 421.815 250.908 427.902 260.668 C 433.230 269.209 438.461 281.696 441.964 291.134 C 444.596 298.226 447.707 307.896 448.994 315.351 C 450.487 323.998 451.472 335.821 450.630 344.556 C 449.520 356.071 445.088 371.094 440.835 381.852 C 436.726 392.245 429.881 405.722 423.129 414.628 C 419.957 418.812 415.122 424.068 410.803 427.054 C 406.913 429.743 400.965 432.181 396.436 433.542 M 403.603 231.008 C 403.603 231.008 403.603 231.008 403.603 231.008 Z" clip-path="url(#b1df8be6-2797-44e0-9d75-0bb0398a55d6)"/>
<path fill="none" stroke="#050100" stroke-width="1" stroke-linecap="round" stroke-linejoin="round" d="M 386.240 435.296 C 386.240 435.296 386.240 435.296 386.240 435.296 C 389.298 434.770 393.463 434.435 396.436 433.542 C 400.965 432.181 406.913 429.743 410.803 427.054 C 415.122 424.068 419.957 418.812 423.129 414.628 C 429.881 405.722 436.726 392.245 440.835 381.852 C 445.088 371.094 449.520 356.071 450.630 344.556 C 451.472 335.821 450.487 323.998 448.994 315.351 C 447.707 307.896 444.596 298.226 441.964 291.134 C 438.461 281.696 433.230 269.209 427.902 260.668 C 421.815 250.908 410.893 239.906 403.603 231.008 C 403.603 231.008 403.603 231.008 403.603 231.008 C 404.851 230.530 407.764 229.415 407.764 229.415 C 407.764 229.415 407.764 229.415 407.764 229.415 C 408.030 229.521 408.405 229.621 408.650 229.769 C 411.054 231.212 413.483 234.188 415.398 236.237 C 421.300 242.554 428.589 251.534 433.605 258.576 C 438.018 264.770 443.834 273.188 446.979 280.113 C 452.023 291.224 456.743 307.066 458.377 319.159 C 459.634 328.461 459.641 341.181 458.135 350.445 C 456.460 360.745 451.357 373.888 447.263 383.488 C 443.871 391.440 438.593 401.769 433.822 408.978 C 429.640 415.298 423.803 423.834 417.910 428.598 C 414.556 431.310 409.356 434.103 405.242 435.396 C 401.013 436.724 390.567 437.095 390.565 437.095 C 390.565 437.095 390.565 437.095 390.565 437.095 C 389.268 436.556 386.240 435.296 386.240 435.296 " clip-path="url(#b1df8be6-2797-44e0-9d75-0bb0398a55d6)"/>
<path fill="#050100" fill-rule="evenodd" stroke="none" d="M 575.708 440.039 C 575.952 444.423 575.120 450.267 574.868 454.651 C 574.868 454.651 578.160 454.533 579.571 454.483 C 579.571 454.481 580.762 442.838 580.410 437.855 C 580.023 432.375 578.456 425.148 576.883 419.884 C 574.917 413.304 570.592 405.141 568.150 398.722 C 561.928 382.372 552.126 360.816 549.228 343.564 C 548.252 337.757 548.053 329.811 548.595 323.948 C 549.051 319.017 550.379 312.464 552.075 307.812 C 555.035 299.695 561.309 289.863 565.950 282.576 C 570.888 274.822 578.689 265.318 584.058 257.857 C 588.069 252.284 593.552 244.940 597.280 239.174 C 600.040 234.905 603.840 229.234 605.911 224.591 C 606.792 222.615 607.508 219.801 608.192 217.748 C 608.191 217.748 601.387 217.493 602.917 217.035 C 602.999 217.010 603.116 217.035 603.202 217.035 C 601.313 221.577 599.367 227.916 596.904 232.174 C 593.237 238.514 586.500 245.737 581.831 251.380 C 575.966 258.470 567.350 267.252 561.652 274.476 C 555.562 282.199 547.477 292.628 542.689 301.219 C 540.200 305.686 536.865 311.820 535.848 316.831 C 533.753 327.152 534.952 341.662 537.418 351.900 C 541.464 368.699 554.996 388.187 562.357 403.820 C 565.846 411.229 571.498 420.741 573.820 428.594 C 574.806 431.931 575.514 436.564 575.708 440.039 M 603.202 217.035 C 603.202 217.035 603.202 217.035 603.202 217.035 Z" clip-path="url(#b1df8be6-2797-44e0-9d75-0bb0398a55d6)"/>
<path fill="none" stroke="#050100" stroke-width="1" stroke-linecap="round" stroke-linejoin="round" d="M 574.868 454.651 C 574.868 454.651 574.868 454.651 574.868 454.651 C 575.120 450.267 575.952 444.423 575.708 440.039 C 575.514 436.564 574.806 431.931 573.820 428.594 C 571.498 420.741 565.846 411.229 562.357 403.820 C 554.996 388.187 541.464 368.699 537.418 351.900 C 534.952 341.662 533.753 327.152 535.848 316.831 C 536.865 311.820 540.200 305.686 542.689 301.219 C 547.477 292.628 555.562 282.199 561.652 274.476 C 567.350 267.252 575.966 258.470 581.831 251.380 C 586.500 245.737 593.237 238.514 596.904 232.174 C 599.367 227.916 601.313 221.577 603.202 217.035 C 603.202 217.035 603.202 217.035 603.202 217.035 C 603.116 217.035 602.999 217.010 602.917 217.035 C 601.387 217.493 608.191 217.748 608.192 217.748 C 608.192 217.748 608.192 217.748 608.192 217.748 C 607.508 219.801 606.792 222.615 605.911 224.591 C 603.840 229.234 600.040 234.905 597.280 239.174 C 593.552 244.940 588.069 252.284 584.058 257.857 C 578.689 265.318 570.888 274.822 565.950 282.576 C 561.309 289.863 555.035 299.695 552.075 307.812 C 550.379 312.464 549.051 319.017 548.595 323.948 C 548.053 329.811 548.252 337.757 549.228 343.564 C 552.126 360.816 561.928 382.372 568.150 398.722 C 570.592 405.141 574.917 413.304 576.883 419.884 C 578.456 425.148 580.023 432.375 580.410 437.855 C 580.762 442.838 579.571 454.481 579.571 454.483 C 579.571 454.483 579.571 454.483 579.571 454.483 C 578.160 454.533 574.868 454.651 574.868 454.651 " clip-path="url(#b1df8be6-2797-44e0-9d75-0bb0398a55d6)"/>
<path fill="#050100" fill-rule="evenodd" stroke="none" d="M 635.928 430.861 C 637.388 436.379 639.616 443.658 641.197 449.142 C 641.197 449.142 644.236 447.953 645.538 447.443 C 645.537 447.442 642.388 436.137 641.385 431.211 C 638.396 416.530 636.213 396.632 634.402 381.759 C 633.129 371.307 630.713 357.377 630.781 346.848 C 630.895 329.103 634.947 305.599 638.336 288.180 C 640.813 275.454 645.293 258.717 649.129 246.333 C 650.419 242.169 652.519 236.743 653.971 232.632 C 653.971 232.632 650.909 231.561 649.597 231.101 C 645.250 242.195 638.749 256.736 635.109 268.081 C 631.279 280.017 626.728 296.197 624.897 308.597 C 622.990 321.515 622.465 339.028 622.921 352.078 C 623.425 366.523 625.981 385.703 628.541 399.928 C 630.231 409.318 633.487 421.638 635.928 430.861 M 649.597 231.101 C 649.597 231.101 649.597 231.101 649.597 231.101 Z" clip-path="url(#b1df8be6-2797-44e0-9d75-0bb0398a55d6)"/>
<path fill="none" stroke="#050100" stroke-width="1" stroke-linecap="round" stroke-linejoin="round" d="M 641.197 449.142 C 641.197 449.142 641.197 449.142 641.197 449.142 C 639.616 443.658 637.388 436.379 635.928 430.861 C 633.487 421.638 630.231 409.318 628.541 399.928 C 625.981 385.703 623.425 366.523 622.921 352.078 C 622.465 339.028 622.990 321.515 624.897 308.597 C 626.728 296.197 631.279 280.017 635.109 268.081 C 638.749 256.736 645.250 242.195 649.597 231.101 C 649.597 231.101 649.597 231.101 649.597 231.101 C 650.909 231.561 653.971 232.632 653.971 232.632 C 653.971 232.632 653.971 232.632 653.971 232.632 C 652.519 236.743 650.419 242.169 649.129 246.333 C 645.293 258.717 640.813 275.454 638.336 288.180 C 634.947 305.599 630.895 329.103 630.781 346.848 C 630.713 357.377 633.129 371.307 634.402 381.759 C 636.213 396.632 638.396 416.530 641.385 431.211 C 642.388 436.137 645.537 447.442 645.538 447.443 C 645.538 447.443 645.538 447.443 645.538 447.443 C 644.236 447.953 641.197 449.142 641.197 449.142 " clip-path="url(#b1df8be6-2797-44e0-9d75-0bb0398a55d6)"/>
<path fill="#050100" fill-rule="evenodd" stroke="none" d="M 782.758 374.909 C 781.261 381.390 777.850 389.632 775.747 395.942 C 775.747 395.942 778.002 396.075 778.968 396.132 C 778.969 396.131 784.392 386.492 786.169 382.110 C 788.953 375.242 792.088 365.753 793.180 358.424 C 794.286 351.001 793.785 340.903 793.370 333.411 C 793.044 327.546 792.512 319.665 791.113 313.960 C 789.581 307.712 785.716 299.953 783.403 293.950 C 783.403 293.950 780.833 293.436 779.731 293.216 C 781.037 298.680 783.255 305.873 784.085 311.430 C 785.807 322.970 786.500 338.619 785.979 350.275 C 785.647 357.721 784.435 367.647 782.758 374.909 M 779.731 293.216 C 779.731 293.216 779.731 293.216 779.731 293.216 Z" clip-path="url(#b1df8be6-2797-44e0-9d75-0bb0398a55d6)"/>
<path fill="none" stroke="#050100" stroke-width="1" stroke-linecap="round" stroke-linejoin="round" d="M 775.747 395.942 C 775.747 395.942 775.747 395.942 775.747 395.942 C 777.850 389.632 781.261 381.390 782.758 374.909 C 784.435 367.647 785.647 357.721 785.979 350.275 C 786.500 338.619 785.807 322.970 784.085 311.430 C 783.255 305.873 781.037 298.680 779.731 293.216 C 779.731 293.216 779.731 293.216 779.731 293.216 C 780.833 293.436 783.403 293.950 783.403 293.950 C 783.403 293.950 783.403 293.950 783.403 293.950 C 785.716 299.953 789.581 307.712 791.113 313.960 C 792.512 319.665 793.044 327.546 793.370 333.411 C 793.785 340.903 794.286 351.001 793.180 358.424 C 792.088 365.753 788.953 375.242 786.169 382.110 C 784.392 386.492 778.969 396.131 778.968 396.132 C 778.968 396.132 778.968 396.132 778.968 396.132 C 778.002 396.075 775.747 395.942 775.747 395.942 " clip-path="url(#b1df8be6-2797-44e0-9d75-0bb0398a55d6)"/>
</g>
<g id="Layer_6">
<clipPath id="57f83181-a866-47cc-8999-2697b89a45eb">
<path fill="#ec7a3c" fill-rule="evenodd" stroke="none" d="M 466.595 410.776 C 467.238 413.116 469.301 418.400 469.301 418.400 C 472.105 420.024 475.674 422.523 478.647 423.811 C 488.190 427.946 501.846 431.160 512.097 432.912 C 520.705 434.383 532.621 437.129 541.120 435.125 C 547.071 433.722 553.956 428.733 558.829 425.041 C 564.984 420.378 572.893 413.361 577.030 406.840 C 583.042 397.363 588.535 382.633 589.082 371.423 C 589.501 362.821 587.146 350.894 582.933 343.384 C 578.874 336.147 570.380 328.012 563.010 324.199 C 554.617 319.856 541.465 318.205 532.020 318.542 C 524.884 318.797 515.318 321.069 508.900 324.199 C 504.735 326.230 500.113 330.521 496.602 333.545 C 490.711 338.619 483.367 345.977 478.155 351.746 C 474.463 355.834 469.722 361.477 466.595 366.012 C 465.037 368.273 462.633 371.230 461.922 373.882 C 460.852 377.876 461.987 383.543 462.414 387.656 C 463.143 394.667 464.730 403.979 466.595 410.776 Z"/>
</clipPath>
<path fill="#ec7a3c" fill-rule="evenodd" stroke="none" d="M 466.595 410.776 C 467.238 413.116 469.301 418.400 469.301 418.400 C 472.105 420.024 475.674 422.523 478.647 423.811 C 488.190 427.946 501.846 431.160 512.097 432.912 C 520.705 434.383 532.621 437.129 541.120 435.125 C 547.071 433.722 553.956 428.733 558.829 425.041 C 564.984 420.378 572.893 413.361 577.030 406.840 C 583.042 397.363 588.535 382.633 589.082 371.423 C 589.501 362.821 587.146 350.894 582.933 343.384 C 578.874 336.147 570.380 328.012 563.010 324.199 C 554.617 319.856 541.465 318.205 532.020 318.542 C 524.884 318.797 515.318 321.069 508.900 324.199 C 504.735 326.230 500.113 330.521 496.602 333.545 C 490.711 338.619 483.367 345.977 478.155 351.746 C 474.463 355.834 469.722 361.477 466.595 366.012 C 465.037 368.273 462.633 371.230 461.922 373.882 C 460.852 377.876 461.987 383.543 462.414 387.656 C 463.143 394.667 464.730 403.979 466.595 410.776 Z"/>
<path fill="none" stroke="#ec7a3c" stroke-width="1" stroke-linecap="round" stroke-linejoin="round" d="M 466.595 410.776 C 467.238 413.116 469.301 418.400 469.301 418.400 C 472.105 420.024 475.674 422.523 478.647 423.811 C 488.190 427.946 501.846 431.160 512.097 432.912 C 520.705 434.383 532.621 437.129 541.120 435.125 C 547.071 433.722 553.956 428.733 558.829 425.041 C 564.984 420.378 572.893 413.361 577.030 406.840 C 583.042 397.363 588.535 382.633 589.082 371.423 C 589.501 362.821 587.146 350.894 582.933 343.384 C 578.874 336.147 570.380 328.012 563.010 324.199 C 554.617 319.856 541.465 318.205 532.020 318.542 C 524.884 318.797 515.318 321.069 508.900 324.199 C 504.735 326.230 500.113 330.521 496.602 333.545 C 490.711 338.619 483.367 345.977 478.155 351.746 C 474.463 355.834 469.722 361.477 466.595 366.012 C 465.037 368.273 462.633 371.230 461.922 373.882 C 460.852 377.876 461.987 383.543 462.414 387.656 C 463.143 394.667 464.730 403.979 466.595 410.776 M 469.301 418.400 C 469.301 418.400 469.301 418.400 469.301 418.400 "/>
<path fill="#050100" fill-rule="evenodd" stroke="none" d="M 535.370 432.508 C 531.973 434.028 527.019 434.893 523.440 435.915 C 523.442 435.916 533.759 437.786 538.138 437.149 C 545.233 436.117 554.357 432.106 560.189 427.936 C 566.849 423.173 573.632 414.217 578.162 407.395 C 581.758 401.980 585.839 394.182 587.773 387.976 C 589.740 381.663 591.008 372.774 590.934 366.163 C 590.853 358.850 590.524 348.444 586.825 342.136 C 581.345 332.793 568.156 324.234 558.056 320.323 C 548.640 316.677 534.544 315.747 524.546 317.162 C 517.831 318.112 509.151 321.527 503.365 325.065 C 498.089 328.291 492.678 334.760 488.098 338.915 C 491.521 337.444 495.927 335.041 499.508 334.012 C 505.831 332.196 514.651 330.799 521.227 330.981 C 527.555 331.157 536.126 332.512 541.937 335.022 C 548.114 337.691 556.046 342.800 560.121 348.155 C 563.896 353.116 566.445 361.448 567.445 367.602 C 568.843 376.214 568.544 388.321 565.929 396.645 C 563.032 405.871 555.667 417.159 548.756 423.921 C 545.346 427.258 539.725 430.560 535.370 432.508 M 488.098 338.915 C 488.098 338.915 488.098 338.915 488.098 338.915 Z" clip-path="url(#57f83181-a866-47cc-8999-2697b89a45eb)"/>
<path fill="none" stroke="#050100" stroke-width="1" stroke-linecap="round" stroke-linejoin="round" d="M 523.440 435.915 C 523.440 435.915 523.440 435.915 523.440 435.915 C 527.019 434.893 531.973 434.028 535.370 432.508 C 539.725 430.560 545.346 427.258 548.756 423.921 C 555.667 417.159 563.032 405.871 565.929 396.645 C 568.544 388.321 568.843 376.214 567.445 367.602 C 566.445 361.448 563.896 353.116 560.121 348.155 C 556.046 342.800 548.114 337.691 541.937 335.022 C 536.126 332.512 527.555 331.157 521.227 330.981 C 514.651 330.799 505.831 332.196 499.508 334.012 C 495.927 335.041 491.521 337.444 488.098 338.915 C 488.098 338.915 488.098 338.915 488.098 338.915 C 492.678 334.760 498.089 328.291 503.365 325.065 C 509.151 321.527 517.831 318.112 524.546 317.162 C 534.544 315.747 548.640 316.677 558.056 320.323 C 568.156 324.234 581.345 332.793 586.825 342.136 C 590.524 348.444 590.853 358.850 590.934 366.163 C 591.008 372.774 589.740 381.663 587.773 387.976 C 585.839 394.182 581.758 401.980 578.162 407.395 C 573.632 414.217 566.849 423.173 560.189 427.936 C 554.357 432.106 545.233 436.117 538.138 437.149 C 533.759 437.786 523.442 435.916 523.440 435.915 " clip-path="url(#57f83181-a866-47cc-8999-2697b89a45eb)"/>
</g>
<g id="Layer_7">
<path fill="#dc5920" fill-rule="evenodd" stroke="#dc5920" stroke-width="1" stroke-linecap="round" stroke-linejoin="round" d="M 337.566 280.486 C 351.967 280.486 363.584 292.103 363.584 306.504 C 363.584 320.905 351.967 332.522 337.566 332.522 C 323.165 332.522 311.548 320.905 311.548 306.504 C 311.548 292.103 323.165 280.486 337.566 280.486 Z"/>
<path fill="#040000" fill-rule="evenodd" stroke="#040000" stroke-width="1" stroke-linecap="round" stroke-linejoin="round" d="M 337.861 291.196 C 346.805 291.196 354.020 298.412 354.020 307.356 C 354.020 316.300 346.805 323.515 337.861 323.515 C 328.916 323.515 321.701 316.300 321.701 307.356 C 321.701 298.412 328.917 291.197 337.861 291.196 Z"/>
<path fill="#f8f8f8" fill-rule="evenodd" stroke="#f8f8f8" stroke-width="1" stroke-linecap="round" stroke-linejoin="round" d="M 344.158 295.118 C 346.657 295.118 348.673 297.134 348.673 299.633 C 348.673 302.132 346.657 304.148 344.158 304.148 C 341.659 304.148 339.643 302.132 339.643 299.633 C 339.643 297.134 341.659 295.118 344.158 295.118 Z"/>
</g>
</g>
</svg>
